<svg width="1351" height="142" viewBox="0 0 1351 142" fill="none" xmlns="http://www.w3.org/2000/svg">
<path d="M1337.92 84.7418C1337.12 83.9158 1336.5 82.9309 1336.1 81.8511C1335.71 80.7713 1335.54 79.6208 1335.62 78.4743C1335.7 77.3277 1336.02 76.2109 1336.56 75.1962C1337.1 74.1815 1337.85 73.2918 1338.76 72.5847C1345.47 66.8687 1349.68 58.7478 1350.46 49.9666C1351.11 41.0019 1348.24 32.1337 1342.46 25.2364C1336.69 18.3391 1328.45 13.9533 1319.5 13.0062C1310.86 12.2205 1302.26 14.796 1295.49 20.1947C1273.71 37.3877 1254.69 44.4878 160.854 44.4903C100.031 40.5126 82.1137 31.0066 62.696 11.1312C56.6797 4.9 48.4804 1.2384 39.8216 0.916076C30.8269 0.690652 22.0996 3.96482 15.4827 10.047C8.86575 16.1292 4.87735 24.5433 4.35985 33.5122C4.02145 42.3208 7.15006 50.9147 13.0759 57.4539C13.8518 58.2926 14.4481 59.2806 14.8278 60.3574C15.2076 61.4342 15.363 62.5769 15.2844 63.7155C15.2058 64.854 14.8949 65.9643 14.3708 66.9781C13.8468 67.9919 13.1206 68.8879 12.2369 69.6109C5.51926 75.327 1.3171 83.4478 0.533178 92.229C-0.115183 101.19 2.75636 110.054 8.53909 116.942C14.3218 123.831 22.5615 128.203 31.512 129.132C40.1324 129.936 48.7274 127.381 55.4994 122.001C77.2839 104.808 111.351 98.7069 157.141 101.628C1235.94 100.569 1268.9 111.131 1288.3 131.064C1294.33 137.275 1302.52 140.933 1311.17 141.28C1320.16 141.505 1328.89 138.227 1335.5 132.14C1342.1 126.053 1346.08 117.635 1346.58 108.668C1346.96 99.8676 1343.85 91.2693 1337.92 84.7418Z" fill="#FFC536"/>
</svg>
