<svg width="547" height="275" viewBox="0 0 547 275" fill="none" xmlns="http://www.w3.org/2000/svg">
<path fill-rule="evenodd" clip-rule="evenodd" d="M346.624 24.8169C323.469 9.46413 291.774 0 256.817 0C198.152 0 148.676 26.6538 133.33 63.0627C131.697 63.021 130.057 63 128.409 63C57.4904 63 0 101.951 0 150C0 198.049 57.4904 237 128.409 237C142.518 237 156.096 235.458 168.795 232.61C191.221 258.001 232.211 275 279.061 275C310.916 275 340.062 267.141 362.505 254.129C369.122 254.704 375.861 255 382.698 255C473.439 255 547 202.841 547 138.5C547 74.1588 473.439 22 382.698 22C370.305 22 358.232 22.9729 346.624 24.8169Z" fill="white" fill-opacity="0.7"/>
</svg>
