<svg xmlns="http://www.w3.org/2000/svg" width="27" height="21" fill="none" xmlns:v="https://vecta.io/nano"><path d="M22.82 1.686A22.4 22.4 0 0 0 17.333.001c-.035-.006-.07.01-.088.041-.237.417-.499.961-.683 1.389-2.072-.307-4.133-.307-6.163 0A13.99 13.99 0 0 0 9.705.043c-.018-.031-.053-.047-.088-.041C7.692.33 5.849.904 4.13 1.686c-.015.006-.028.017-.036.031C.599 6.884-.358 11.924.111 16.902c.002.024.016.048.035.063 2.306 1.676 4.539 2.693 6.731 3.367.035.011.072-.002.095-.031.519-.701.981-1.44 1.377-2.217.023-.046.001-.099-.047-.117-.733-.275-1.431-.611-2.103-.992-.053-.031-.057-.106-.008-.142.141-.105.283-.214.418-.324.024-.02.058-.024.087-.012 4.412 1.994 9.188 1.994 13.547 0 .029-.014.063-.009.088.011a10.81 10.81 0 0 0 .419.325c.049.036.046.111-.007.142a13.88 13.88 0 0 1-2.104.991c-.048.018-.069.073-.046.119a17.72 17.72 0 0 0 1.376 2.216c.021.03.059.042.095.032a22.37 22.37 0 0 0 6.742-3.367c.02-.015.033-.037.035-.061.562-5.755-.941-10.754-3.986-15.185-.007-.015-.02-.025-.035-.032zM9.008 13.871c-1.328 0-2.423-1.207-2.423-2.689s1.073-2.689 2.423-2.689c1.36 0 2.444 1.217 2.423 2.689 0 1.482-1.073 2.689-2.423 2.689zm8.957 0c-1.328 0-2.423-1.207-2.423-2.689s1.073-2.689 2.423-2.689c1.36 0 2.444 1.217 2.423 2.689 0 1.482-1.062 2.689-2.423 2.689z" fill="#fff"/></svg>