<svg width="710" height="708" viewBox="0 0 710 708" fill="none" xmlns="http://www.w3.org/2000/svg">
<path d="M513.911 173.383C512.148 173.381 510.386 173.467 508.631 173.642C510.395 173.665 512.158 173.579 513.911 173.383V173.383Z" fill="#F1F2F2"/>
<path d="M127.414 215.832L129.025 215.68L127.414 215.832Z" fill="#F1F2F2"/>
<path d="M413.215 181.729L412.945 182.047C408.241 182.47 411.557 181.847 407.241 182.306C405.595 182.858 400.068 182.905 398.598 183.258C397.945 183.311 397.288 183.311 396.634 183.258C395.472 183.495 394.292 183.637 393.107 183.681C392.636 183.787 393.471 183.681 393.836 183.751L390.79 184.104C389.614 184.104 389.285 184.045 390.578 183.904C382.594 184.539 344.258 187.784 335.662 188.665C336.779 188.736 339.425 188.383 340.46 188.548C338.202 188.9 337.108 188.806 336.12 189.053C335.215 188.736 331.123 189.406 329.359 189.171L328.724 189.441H327.548C317.576 190.617 325.278 189.77 316.411 190.511C311.284 191.005 308.874 191.534 306.004 191.686C306.439 191.686 307.58 191.686 306.251 191.863C306.004 191.686 302.723 192.321 302.065 192.18C300.76 192.321 296.55 192.686 297.996 192.815C297.267 192.744 293.504 193.038 295.727 192.721C294.457 192.827 293.234 192.897 292.316 193.038L293.963 192.968C289.67 193.391 287.319 193.391 284.555 193.885H286.143C284.246 194.155 282.33 194.254 280.416 194.179L283.038 193.849C278.781 194.249 276.229 194.496 272.702 194.955L273.96 194.849C269.468 195.519 245.89 197.858 241.763 198.563H243.691L240.163 199.057C240.587 199.057 241.833 198.234 242.198 198.27C234.53 198.975 194.689 202.725 187.599 203.23C184.741 203.372 187.058 202.948 187.093 202.913C183.565 203.301 185.611 203.266 182.66 203.513C181.848 203.513 182.812 203.336 183.259 203.277C182.391 203.31 181.527 203.405 180.672 203.56C182.295 203.477 181.636 203.795 182.33 203.901L178.532 204.218L178.685 204.042C176.75 204.484 174.785 204.778 172.805 204.923L153.32 206.628C154.223 206.401 155.143 206.248 156.071 206.169C155.213 206.24 153.931 206.381 153.143 206.393C154.684 206.393 150.486 206.745 151.697 206.698C147.087 207.509 141.113 207.698 136.986 208.332C136.657 208.709 128.754 215.151 128.754 215.562C127.484 215.668 126.214 215.785 125.826 215.785C127.218 215.772 128.609 215.674 129.989 215.492L130.201 215.256C133.246 214.892 130.93 215.315 133.905 215.033C134.081 215.209 131.341 215.492 128.919 215.727C130.673 215.675 132.422 215.503 134.152 215.209C136.198 215.104 133.94 215.456 136.41 215.303C138.162 215.092 140.455 214.716 142.478 214.633C147.393 214.387 149.957 213.681 154.449 213.458L153.967 213.564C155.566 213.564 158.67 213.105 161.528 212.952C160.716 212.952 159.999 212.952 161.704 212.741C164.997 212.564 167.231 212.247 169.642 212.176L171.935 211.789L239.963 205.405L239.516 205.476C257.003 203.806 292.916 200.585 310.967 198.705C313.777 198.634 317.634 198.246 320.563 198.035C318.928 198.105 319.469 197.929 320.739 197.823C329.629 197.035 321.327 197.647 330.311 196.765C340.648 195.66 380.277 192.274 389.485 191.604C394.388 190.899 400.574 190.534 405.395 189.935L404.913 190.041C410.099 189.476 439.521 187.067 445.542 186.432H444.731C449.975 185.797 449.281 186.15 453.444 185.856C452.868 185.621 457.36 185.045 459.089 184.868L459.03 184.939C461.617 184.657 467.461 183.869 471.742 183.446L471.589 183.622C475.117 183.128 481.879 182.599 484.442 182.341C490.322 181.882 499.4 181.342 507.232 180.425H512.347L513.076 180.307C513.076 180.307 520.755 174.077 510.278 173.842L510.431 173.677L508.384 173.877C505.915 174.018 504.857 174.312 504.951 174.135L508.314 173.853C505.844 174.03 507.561 173.783 508.502 173.606C507.467 173.689 506.456 173.759 505.633 173.783C505.151 173.889 505.997 173.783 506.385 173.783C505.056 173.959 503.222 174.276 501.599 174.347C499.071 174.559 501.411 174.1 498.459 174.347C482.878 175.628 467.767 176.804 452.021 178.25C451.657 178.25 452.092 178.179 452.539 178.109L439.274 179.425C438.638 179.459 438.001 179.435 437.369 179.355C437.734 179.355 431.772 179.966 425.68 180.53L413.215 181.729Z" fill="#F1F2F2"/>
<path d="M353.254 80.5845L108.422 273.541L164.867 657.301H548.919L598.073 269.203L353.254 80.5845Z" fill="#93704E"/>
<path d="M598.309 417.499L600.461 417.558L598.309 417.499Z" fill="#856546"/>
<path d="M593.522 417.405L598.309 417.535L593.522 417.405Z" fill="#856546"/>
<path d="M93.0172 439.188L90.8887 439.118L93.0172 439.188Z" fill="#856546"/>
<path d="M542.04 416.23C539.5 416.23 536.96 416.1 534.408 416.23C529.316 416.559 524.189 416.759 519.015 416.982C518.533 416.982 519.097 416.912 519.697 416.853L502.222 417.699C501.393 417.715 500.564 417.672 499.741 417.57C500.212 417.57 492.368 417.981 484.336 418.334L467.873 419.004L467.485 419.31C461.335 419.58 465.686 419.063 460.006 419.369C457.795 419.862 450.598 419.721 448.611 420.015C447.752 420.044 446.892 420.024 446.036 419.956C444.507 420.15 442.967 420.248 441.426 420.25C440.791 420.344 441.896 420.25 442.379 420.344L438.357 420.591C436.781 420.591 436.393 420.474 438.098 420.379C427.585 420.732 377.149 422.637 365.836 423.213C367.295 423.318 370.787 423.06 372.128 423.271C369.141 423.542 367.718 423.401 366.401 423.612C365.225 423.271 359.827 423.789 357.546 423.495L356.699 423.753L355.206 423.671C342.047 424.459 352.195 423.918 340.53 424.353C333.886 424.659 330.687 425.093 326.995 425.14C327.63 425.14 328.724 425.211 327.136 425.329C326.83 425.152 322.432 425.67 321.621 425.505C319.916 425.599 314.365 425.811 316.247 425.999C315.306 425.905 310.367 426.057 313.295 425.811C311.625 425.881 310.003 425.905 308.803 426.01H310.955C305.311 426.281 302.23 426.21 298.561 426.598H300.654C298.15 426.804 295.635 426.832 293.128 426.681L296.585 426.457C290.988 426.704 287.624 426.857 282.968 427.186L284.626 427.127C278.746 427.644 247.642 429.161 242.186 429.713L244.714 429.807L240.01 430.184C240.575 430.184 242.256 429.42 242.727 429.467C232.637 429.913 180.19 432.264 170.877 432.511C167.114 432.511 170.183 432.217 170.23 432.182C165.655 432.452 168.266 432.476 164.35 432.629C163.292 432.629 164.562 432.452 165.161 432.405C163.456 432.5 161.881 432.488 161.751 432.582C163.88 432.582 162.986 432.864 163.903 432.993L161.398 433.076L158.894 433.134L159.105 432.97C158 432.97 156.295 433.428 151.391 433.746C144.782 434.216 137.738 434.815 132.188 435.274L132.87 440.117C133.902 440.267 134.944 440.338 135.986 440.329C134.916 440.329 133.975 440.164 136.245 440.188C140.572 440.364 143.524 440.317 146.699 440.493L149.733 440.364C151.615 440.364 154.202 440.505 157.294 440.364L162.292 440.058L167.948 439.8L194.49 438.624L239.293 436.602H238.705C261.73 435.556 308.991 433.593 332.781 432.358C336.461 432.358 341.541 432.123 345.375 432.018C343.246 432.018 343.964 431.876 345.634 431.806C357.393 431.347 346.422 431.653 358.252 431.089C371.869 430.348 424.01 428.362 436.111 428.009C442.59 427.48 450.716 427.339 457.066 426.904L456.431 426.998L509.901 424.811H508.831C515.758 424.365 514.829 424.694 520.285 424.553C519.556 424.294 525.483 423.871 527.752 423.753L527.67 423.824L535.219 423.412C538.289 423.213 541.617 422.813 544.427 422.59L544.215 422.754C548.919 422.213 557.727 421.579 561.102 421.261C566.041 420.885 572.685 420.356 578.965 419.756L579.329 416.994L549.66 416.336L542.04 416.23Z" fill="#856546"/>
<path d="M136.903 298.039C135.81 297.945 134.857 297.792 137.162 297.91C141.583 298.263 144.594 298.333 147.828 298.651H150.92C152.849 298.733 155.483 298.968 158.646 298.944L163.762 298.85H169.547L196.688 298.768L242.55 298.627H241.95C265.469 298.533 313.812 298.556 338.143 298.298C341.894 298.474 347.092 298.439 351.019 298.486C348.832 298.415 349.585 298.286 351.278 298.298C363.249 298.298 352.089 298.169 364.213 298.098C378.136 297.933 431.442 298.098 443.813 298.274C450.457 298.016 458.747 298.204 465.25 298.039L464.592 298.11H519.262H518.168C525.224 297.945 524.295 298.227 529.869 298.321C529.14 298.027 535.207 297.863 537.524 297.839L537.43 297.898L545.156 297.804C548.296 297.734 551.706 297.463 554.563 297.357L554.328 297.522C559.138 297.169 568.181 296.887 571.638 296.723C577.929 296.534 586.925 296.182 594.734 295.864L595.004 293.76C594.604 293.513 595.275 293.525 591.3 293.266L560.161 291.327L552.4 290.868C549.801 290.727 547.214 290.539 544.603 290.563C539.394 290.668 534.149 290.657 528.857 290.657C528.375 290.598 528.951 290.598 529.563 290.563L511.7 290.68C510.849 290.661 510 290.582 509.16 290.445C509.642 290.516 501.622 290.551 493.414 290.563H476.516L476.104 290.857C469.825 290.857 474.282 290.527 468.473 290.598C466.203 291.009 458.818 290.598 456.807 290.774C455.934 290.767 455.063 290.708 454.197 290.598C452.632 290.733 451.061 290.768 449.493 290.704C448.846 290.774 449.975 290.774 450.457 290.845L446.353 290.915C444.742 290.845 444.354 290.715 446.094 290.692C435.358 290.61 383.769 290.398 372.222 290.516C373.703 290.68 377.278 290.516 378.63 290.833C375.573 290.974 374.127 290.774 372.751 290.939C371.575 290.539 366.024 290.845 363.708 290.445L362.837 290.668L361.309 290.527C347.856 290.763 358.239 290.645 346.315 290.586C339.518 290.586 336.226 290.927 332.463 290.821C333.11 290.821 334.227 290.962 332.592 291.009C332.286 290.821 327.83 291.15 326.959 291.009C325.207 291.009 319.539 291.009 321.456 291.268C320.492 291.139 315.435 291.08 318.446 290.962C316.74 290.962 315.082 290.962 313.859 290.962L316.047 291.045C310.284 291.045 307.145 290.868 303.382 291.115L305.51 291.221C302.948 291.319 300.383 291.245 297.831 290.998L301.359 290.915C295.644 290.915 292.187 290.915 287.424 291.08H289.153C283.073 291.35 251.311 291.562 245.713 291.891L248.289 292.103L243.479 292.267C244.055 292.267 245.831 291.609 246.278 291.679C235.977 291.679 182.342 291.856 172.817 291.679C168.983 291.562 172.123 291.35 172.17 291.327C167.466 291.397 170.159 291.538 166.184 291.515C165.091 291.515 166.408 291.362 167.019 291.327C165.279 291.327 163.656 291.327 163.491 291.327C165.667 291.409 164.75 291.656 165.667 291.821H163.115H160.551L160.787 291.656C159.611 291.656 157.894 291.997 152.873 292.114C144.394 292.35 135.233 292.773 126.673 293.09C126.802 293.02 128.589 292.914 130.389 292.796C129.213 292.796 127.496 292.937 126.449 292.937C128.507 292.937 122.921 293.161 124.485 293.137C120.287 293.443 115.278 293.619 111.373 293.819L111.738 296.382H111.244C117.829 296.922 121.334 296.899 127.355 297.369H126.708C128.872 297.569 133.058 297.722 136.903 298.039Z" fill="#856546"/>
<path d="M455.973 167.2C456.937 167.386 457.919 167.461 458.901 167.423C457.933 167.261 456.953 167.186 455.973 167.2V167.2Z" fill="#856546"/>
<path d="M244.373 174.864L244.502 174.641C246.207 174.559 244.902 174.77 246.572 174.758C246.654 174.935 245.126 174.982 243.773 174.994C244.745 175.116 245.729 175.116 246.701 174.994C247.877 175.076 246.572 175.217 247.948 175.299C249.072 175.171 250.204 175.128 251.335 175.17V175.17C254.075 175.358 255.521 174.888 258.014 175.076L257.755 175.146C258.637 175.252 260.366 175.146 261.965 175.217C261.506 175.217 261.118 175.052 262.071 175.029C263.905 175.146 265.152 175.029 266.493 175.17L267.774 174.994C274.16 174.994 299.348 174.77 305.757 174.735H305.499C315.259 174.641 335.297 174.653 345.387 174.406C346.951 174.582 349.103 174.547 350.725 174.594C349.82 174.523 350.126 174.394 350.831 174.406C355.794 174.406 351.172 174.276 356.194 174.206C361.967 174.041 384.063 174.206 389.191 174.382C391.942 174.112 395.388 174.312 398.081 174.147L397.81 174.218C400.703 174.112 417.107 174.359 420.482 174.218H420.024C421.646 174.144 423.271 174.215 424.88 174.429C424.575 174.135 427.091 173.971 428.055 173.947V174.006C429.502 174.006 432.759 173.7 435.182 173.665L435.088 173.83C437.075 173.653 440.826 173.724 442.261 173.712C445.53 173.712 450.587 174.053 454.961 173.842L457.795 174.3H458.207C458.207 174.3 462.769 168.787 457.031 167.611L457.125 167.446H455.949C454.585 167.364 453.95 167.552 454.044 167.446H455.925C454.538 167.446 455.502 167.317 456.031 167.223C455.455 167.223 454.855 167.223 454.444 167.141C454.032 167.059 454.632 167.211 454.855 167.247C453.966 167.358 453.07 167.401 452.174 167.376C450.763 167.376 452.08 167.117 450.434 167.106C441.743 166.976 433.324 166.788 424.563 166.823C424.363 166.765 424.563 166.765 424.857 166.729L417.448 166.847C417.089 166.825 416.736 166.746 416.402 166.612C416.602 166.682 413.274 166.718 409.864 166.729H405.16C403.855 166.729 402.949 166.729 402.902 166.729L402.737 167.023C400.127 167.023 401.973 166.694 399.562 166.765C398.622 167.176 395.564 166.765 394.729 166.941C394.729 166.941 393.553 166.941 393.647 166.765C393.283 166.988 392.471 166.823 391.684 166.87C391.413 166.941 391.883 166.941 392.083 167.012H390.284C389.626 166.941 389.461 166.812 390.178 166.788C385.733 166.706 364.308 166.494 359.604 166.612C360.495 166.663 361.383 166.769 362.261 166.929C360.991 167.07 360.392 166.929 359.827 167.035C359.345 166.635 357.04 166.941 356.088 166.541L355.723 166.765L355.088 166.624C353.018 166.788 350.94 166.808 348.867 166.682C346.01 166.682 344.646 167.023 343.058 166.917C343.293 166.917 343.928 167.047 343.188 167.106C343.058 166.917 341.212 167.247 340.836 167.047C340.107 167.047 337.755 167.047 338.554 167.317C338.155 167.188 336.05 167.129 337.308 167.012C336.602 167.012 335.908 167.012 335.403 167.012L336.308 167.094C334.56 167.004 332.809 167.028 331.064 167.164L331.946 167.27C330.878 167.368 329.802 167.293 328.759 167.047L330.217 166.964C327.865 166.964 326.419 166.965 324.443 167.129H325.149C322.632 167.399 309.461 167.611 307.145 167.94L308.215 168.152L306.216 168.316C306.451 168.316 307.18 167.658 307.392 167.729C303.111 167.729 280.874 167.905 276.923 167.729C275.336 167.611 276.641 167.399 276.664 167.376C274.724 167.446 275.818 167.588 274.171 167.564C273.725 167.564 274.265 167.411 274.524 167.376C274.042 167.333 273.555 167.353 273.078 167.435C273.971 167.505 273.595 167.752 273.971 167.917H271.855L271.949 167.752C270.876 168.014 269.772 168.133 268.668 168.105C265.14 168.034 261.342 168.105 257.802 168.105C258.302 167.958 258.822 167.886 259.343 167.893C258.872 167.893 258.167 167.893 257.708 167.893C258.567 168.058 256.227 167.999 256.897 168.07C254.31 168.469 250.958 168.07 248.665 168.375C248.465 168.728 243.773 174.429 243.773 174.841C243.068 174.841 242.362 174.841 242.139 174.841C242.88 174.938 243.63 174.946 244.373 174.864V174.864Z" fill="#856546"/>
<path d="M600.461 579.55L593.546 579.303L600.461 579.55Z" fill="#856546"/>
<path d="M93.0054 579.785L90.877 579.703L93.0054 579.785Z" fill="#856546"/>
<path d="M92.8646 579.773L90.1011 579.668L92.8058 579.773H92.8646Z" fill="#856546"/>
<path d="M519.873 577.14L502.399 576.87C500.823 576.799 500.388 576.717 499.917 576.67C500.388 576.67 492.544 576.599 484.513 576.482L468.049 576.223L467.65 576.458C461.499 576.388 465.862 576.164 460.182 576.153C457.96 576.458 450.775 576 448.776 576.153C447.918 576.136 447.063 576.073 446.212 575.965C444.677 576.047 443.138 576.047 441.602 575.965C440.956 575.965 442.061 576.035 442.543 576.094H438.521C436.946 576.012 436.558 575.894 438.274 575.882C427.761 575.671 377.325 575.153 366.013 575.283C367.471 575.447 370.963 575.353 372.292 575.612C369.294 575.753 367.882 575.612 366.565 575.706C365.389 575.306 359.992 575.588 357.722 575.201L356.864 575.424L355.382 575.283C342.223 575.506 352.372 575.389 340.706 575.283C334.062 575.283 330.852 575.612 327.159 575.518C327.794 575.518 328.888 575.659 327.289 575.718C326.995 575.518 322.585 575.859 321.785 575.718C320.068 575.718 314.518 575.718 316.4 575.988C315.459 575.859 310.52 575.824 313.46 575.694C311.79 575.694 310.167 575.694 308.968 575.694L311.108 575.753C305.463 575.753 302.394 575.624 298.713 575.871L300.806 575.965C298.297 576.078 295.782 576.019 293.28 575.788L296.749 575.683C291.152 575.683 287.777 575.753 283.12 575.918H284.79C278.91 576.188 247.771 576.611 242.303 576.952L244.82 577.105L240.116 577.293C240.68 577.293 242.386 576.705 242.856 576.752L171.006 577.646C167.243 577.646 170.335 577.469 170.371 577.446C165.796 577.575 168.395 577.61 164.491 577.669C163.421 577.669 164.703 577.575 165.302 577.552C163.597 577.552 162.022 577.552 161.892 577.634C162.61 577.588 163.33 577.668 164.021 577.869L159.023 577.94L159.246 577.845C158.129 577.845 151.344 578.163 153.284 578.104L153.755 581.384C160.269 581.654 177.273 582.007 194.325 582.242L239.14 582.748H238.587C261.6 582.959 308.873 583.23 332.663 582.983C336.344 583.159 341.424 583.124 345.257 583.171C343.129 583.1 343.858 582.971 345.528 582.983C357.228 582.983 346.316 582.853 358.146 582.771C371.763 582.63 423.904 582.595 436.005 582.595C442.496 582.313 450.61 582.407 456.972 582.207H456.325C463.169 582.089 501.858 581.784 509.795 581.56H508.737C515.663 581.349 514.711 581.56 520.179 581.56C519.462 581.396 525.388 581.208 527.658 581.161H527.576L544.356 580.702L544.133 580.784C547.955 580.655 554.505 580.538 558.644 580.467L558.962 578.022C545.803 577.634 532.691 577.281 519.215 577.011C518.709 577.14 519.273 577.152 519.873 577.14Z" fill="#856546"/>
<path d="M451.68 548.715C451.68 548.01 451.774 547.328 451.774 546.623C451.774 482.837 408.817 431.124 355.829 431.124C302.841 431.124 259.884 482.849 259.884 546.623C259.884 547.328 259.966 548.01 259.978 548.715H259.884L273.301 656.949H436.146L451.751 548.715H451.68Z" fill="#2D1D10"/>
<path d="M176.262 590.988C176.246 591.775 175.996 592.539 175.545 593.183C175.093 593.828 174.461 594.324 173.727 594.609C172.993 594.893 172.192 594.954 171.424 594.783C170.655 594.611 169.955 594.216 169.412 593.647C168.869 593.077 168.507 592.36 168.373 591.584C168.238 590.809 168.337 590.012 168.656 589.292C168.975 588.573 169.501 587.965 170.166 587.545C170.832 587.125 171.607 586.912 172.394 586.933C172.914 586.945 173.427 587.059 173.903 587.27C174.379 587.48 174.809 587.782 175.169 588.159C175.528 588.536 175.809 588.979 175.997 589.465C176.185 589.95 176.275 590.468 176.262 590.988V590.988Z" fill="#CFD1D2"/>
<path d="M171.335 563.892C171.314 564.674 171.061 565.433 170.609 566.072C170.157 566.712 169.525 567.202 168.794 567.483C168.063 567.764 167.265 567.822 166.501 567.649C165.737 567.477 165.041 567.082 164.502 566.515C163.962 565.947 163.603 565.233 163.469 564.461C163.335 563.69 163.433 562.896 163.75 562.18C164.067 561.464 164.59 560.859 165.251 560.439C165.912 560.02 166.683 559.806 167.466 559.824C167.988 559.836 168.502 559.951 168.979 560.163C169.456 560.374 169.886 560.677 170.245 561.055C170.605 561.433 170.886 561.878 171.073 562.365C171.26 562.851 171.349 563.37 171.335 563.892V563.892Z" fill="#CFD1D2"/>
<path d="M149.556 448.84C149.54 449.626 149.29 450.39 148.839 451.035C148.387 451.679 147.755 452.175 147.021 452.46C146.287 452.745 145.486 452.805 144.717 452.634C143.949 452.463 143.249 452.068 142.706 451.498C142.163 450.929 141.801 450.211 141.667 449.436C141.532 448.661 141.63 447.863 141.95 447.144C142.269 446.425 142.795 445.817 143.46 445.397C144.126 444.976 144.901 444.763 145.688 444.784C146.208 444.796 146.721 444.911 147.197 445.121C147.673 445.332 148.103 445.634 148.463 446.011C148.822 446.387 149.103 446.831 149.291 447.316C149.479 447.802 149.569 448.319 149.556 448.84V448.84Z" fill="#CFD1D2"/>
<path d="M144.688 421.743C144.667 422.526 144.414 423.286 143.961 423.925C143.508 424.564 142.876 425.055 142.144 425.335C141.412 425.616 140.614 425.673 139.85 425.499C139.085 425.326 138.39 424.93 137.851 424.362C137.311 423.793 136.953 423.077 136.821 422.305C136.688 421.533 136.788 420.739 137.107 420.023C137.426 419.308 137.95 418.703 138.613 418.285C139.276 417.867 140.048 417.655 140.831 417.676C141.351 417.689 141.864 417.806 142.34 418.017C142.815 418.229 143.244 418.533 143.603 418.91C143.961 419.288 144.241 419.733 144.427 420.219C144.614 420.705 144.702 421.223 144.688 421.743V421.743Z" fill="#CFD1D2"/>
<path d="M128.119 312.593C128.1 313.376 127.85 314.136 127.399 314.777C126.948 315.418 126.317 315.91 125.586 316.193C124.855 316.475 124.057 316.535 123.292 316.364C122.527 316.192 121.83 315.799 121.289 315.232C120.748 314.665 120.388 313.95 120.253 313.178C120.119 312.406 120.216 311.612 120.533 310.896C120.85 310.179 121.372 309.572 122.034 309.153C122.695 308.733 123.467 308.519 124.25 308.537C124.771 308.549 125.284 308.664 125.76 308.874C126.236 309.085 126.666 309.387 127.025 309.763C127.384 310.14 127.666 310.584 127.854 311.069C128.041 311.555 128.132 312.072 128.119 312.593Z" fill="#CFD1D2"/>
<path d="M123.263 285.496C123.244 286.282 122.992 287.045 122.539 287.688C122.087 288.331 121.453 288.825 120.719 289.108C119.986 289.391 119.184 289.45 118.417 289.277C117.65 289.105 116.951 288.708 116.409 288.139C115.867 287.569 115.506 286.851 115.372 286.076C115.239 285.301 115.338 284.504 115.657 283.786C115.977 283.068 116.503 282.46 117.168 282.04C117.833 281.621 118.608 281.408 119.394 281.429C120.446 281.456 121.444 281.9 122.17 282.663C122.895 283.425 123.288 284.444 123.263 285.496V285.496Z" fill="#CFD1D2"/>
<path d="M579.329 311.017C579.372 311.803 579.647 312.557 580.12 313.186C580.592 313.815 581.241 314.289 581.983 314.549C582.725 314.809 583.528 314.843 584.29 314.647C585.052 314.45 585.738 314.033 586.262 313.446C586.786 312.86 587.124 312.131 587.234 311.352C587.343 310.574 587.219 309.78 586.877 309.072C586.535 308.364 585.991 307.773 585.313 307.374C584.635 306.976 583.854 306.787 583.068 306.832C582.548 306.861 582.038 306.992 581.568 307.218C581.098 307.444 580.677 307.76 580.33 308.149C579.982 308.538 579.715 308.991 579.543 309.483C579.372 309.976 579.299 310.497 579.329 311.017V311.017Z" fill="#CFD1D2"/>
<path d="M583.292 283.768C583.335 284.554 583.611 285.309 584.084 285.937C584.557 286.566 585.206 287.04 585.949 287.3C586.692 287.56 587.496 287.593 588.257 287.395C589.019 287.198 589.706 286.779 590.229 286.191C590.752 285.604 591.089 284.874 591.198 284.095C591.306 283.315 591.18 282.522 590.836 281.814C590.492 281.106 589.946 280.516 589.267 280.119C588.587 279.722 587.805 279.535 587.02 279.583C586.5 279.613 585.991 279.745 585.523 279.972C585.054 280.198 584.635 280.515 584.288 280.903C583.942 281.292 583.676 281.745 583.505 282.237C583.334 282.728 583.262 283.248 583.292 283.768V283.768Z" fill="#CFD1D2"/>
<path d="M560.149 431.512C560.193 432.297 560.468 433.052 560.94 433.681C561.413 434.309 562.061 434.784 562.804 435.044C563.546 435.304 564.349 435.338 565.11 435.141C565.872 434.945 566.558 434.527 567.082 433.941C567.606 433.354 567.945 432.626 568.054 431.847C568.164 431.068 568.04 430.275 567.698 429.567C567.356 428.858 566.811 428.268 566.133 427.869C565.455 427.47 564.674 427.282 563.889 427.327C562.84 427.391 561.858 427.866 561.157 428.65C560.457 429.434 560.095 430.463 560.149 431.512V431.512Z" fill="#CFD1D2"/>
<path d="M564.113 404.216C564.16 404.997 564.439 405.747 564.912 406.37C565.386 406.994 566.034 407.463 566.774 407.718C567.515 407.974 568.314 408.005 569.072 407.806C569.83 407.608 570.511 407.19 571.031 406.604C571.551 406.019 571.886 405.293 571.994 404.517C572.101 403.741 571.976 402.951 571.635 402.247C571.293 401.542 570.751 400.955 570.075 400.558C569.4 400.161 568.622 399.974 567.84 400.019C567.319 400.047 566.809 400.179 566.338 400.405C565.868 400.632 565.448 400.95 565.101 401.34C564.755 401.73 564.489 402.185 564.319 402.679C564.149 403.173 564.079 403.695 564.113 404.216V404.216Z" fill="#CFD1D2"/>
<path d="M541.534 591.188C541.578 591.974 541.853 592.729 542.327 593.358C542.8 593.986 543.449 594.46 544.192 594.72C544.935 594.98 545.738 595.013 546.5 594.815C547.262 594.618 547.948 594.199 548.471 593.612C548.995 593.024 549.332 592.294 549.44 591.515C549.548 590.736 549.422 589.942 549.079 589.234C548.735 588.526 548.189 587.936 547.509 587.539C546.83 587.142 546.048 586.955 545.262 587.003C544.214 587.067 543.233 587.543 542.535 588.327C541.836 589.111 541.476 590.14 541.534 591.188V591.188Z" fill="#CFD1D2"/>
<path d="M545.509 563.95C545.557 564.732 545.835 565.482 546.309 566.105C546.783 566.729 547.431 567.198 548.171 567.453C548.911 567.709 549.711 567.74 550.468 567.541C551.226 567.343 551.908 566.925 552.428 566.339C552.948 565.754 553.283 565.027 553.39 564.252C553.497 563.476 553.373 562.686 553.031 561.982C552.69 561.277 552.147 560.689 551.472 560.293C550.796 559.896 550.019 559.709 549.237 559.754C548.716 559.782 548.205 559.914 547.735 560.14C547.265 560.367 546.844 560.685 546.498 561.075C546.151 561.465 545.885 561.92 545.715 562.414C545.546 562.907 545.476 563.43 545.509 563.95V563.95Z" fill="#CFD1D2"/>
<path d="M108.304 273.176L36.7246 299.473L358.628 63.9621L673.216 302.859L597.956 268.838C597.956 268.838 511.148 212.129 464.898 176.733C418.648 141.337 353.183 91.4231 353.183 91.4231C353.183 91.4231 292.363 153.998 228.874 194.308C165.385 234.618 108.304 273.176 108.304 273.176Z" fill="#CA6D1A"/>
<path d="M353.171 -7.62939e-06C299.613 50.8961 243.265 98.776 184.388 143.418C126.296 187.243 59.0559 227.141 0 261.562C15.2167 275.751 15.2167 275.751 36.7247 299.509C138.844 251.899 353.054 73.5547 353.054 73.5547C353.054 73.5547 561.525 243.634 673.216 302.859C679.308 295.806 697.006 274.446 710 264.959C656.941 231.032 570.498 173.724 503.457 122.999C416.155 56.9088 353.171 -7.62939e-06 353.171 -7.62939e-06Z" fill="#F98520"/>
<path d="M228.934 649.651C230.582 646.609 232.977 644.036 235.893 642.174C238.809 640.311 242.151 639.22 245.605 639.003C249.058 638.786 252.51 639.451 255.637 640.934C258.763 642.417 261.461 644.671 263.477 647.483C265.493 650.294 266.761 653.572 267.161 657.008C267.562 660.445 267.082 663.926 265.767 667.126C264.452 670.326 262.345 673.139 259.643 675.301C256.942 677.463 253.735 678.904 250.324 679.487C251.627 682.675 252.1 686.141 251.699 689.562C251.298 692.982 250.036 696.245 248.031 699.046C246.026 701.846 243.344 704.093 240.234 705.576C237.125 707.059 233.691 707.73 230.252 707.526C226.813 707.323 223.482 706.251 220.57 704.411C217.658 702.571 215.26 700.023 213.6 697.005C211.94 693.987 211.073 690.598 211.079 687.154C211.085 683.71 211.964 680.324 213.635 677.312C213.905 676.818 214.27 676.418 214.564 675.972L185.577 660.008L170.007 651.426L141.02 635.462C140.797 635.967 140.656 636.485 140.385 636.978C138.737 640.02 136.342 642.593 133.426 644.456C130.511 646.319 127.169 647.41 123.716 647.629C120.263 647.847 116.81 647.185 113.683 645.704C110.556 644.224 107.856 641.973 105.837 639.164C103.818 636.354 102.546 633.078 102.141 629.643C101.735 626.208 102.209 622.726 103.519 619.524C104.828 616.322 106.93 613.505 109.626 611.337C112.323 609.169 115.527 607.722 118.936 607.131C117.538 603.755 117.072 600.066 117.586 596.449C118.101 592.832 119.576 589.419 121.859 586.566C124.142 583.713 127.149 581.525 130.566 580.23C133.983 578.934 137.686 578.579 141.287 579.201C144.888 579.823 148.257 581.399 151.041 583.766C153.825 586.132 155.923 589.202 157.116 592.656C158.31 596.109 158.554 599.819 157.824 603.399C157.095 606.979 155.417 610.298 152.968 613.009L182.284 629.149L197.854 637.731L227.17 653.871C227.601 652.404 228.193 650.989 228.934 649.651Z" fill="#CFD1D2"/>
<path d="M230.345 645.583C231.995 642.548 234.389 639.98 237.303 638.122C240.217 636.264 243.555 635.176 247.005 634.96C250.455 634.744 253.902 635.407 257.026 636.886C260.149 638.366 262.845 640.615 264.862 643.421C266.878 646.227 268.149 649.499 268.555 652.93C268.961 656.361 268.489 659.839 267.183 663.038C265.877 666.237 263.78 669.053 261.089 671.22C258.397 673.388 255.199 674.836 251.794 675.431C253.097 678.619 253.57 682.085 253.169 685.506C252.768 688.926 251.506 692.189 249.501 694.99C247.496 697.791 244.814 700.037 241.704 701.521C238.595 703.004 235.161 703.675 231.722 703.471C228.283 703.267 224.952 702.195 222.04 700.355C219.128 698.515 216.73 695.967 215.07 692.949C213.41 689.931 212.543 686.542 212.549 683.098C212.555 679.654 213.434 676.268 215.105 673.256C215.375 672.762 215.74 672.363 216.034 671.904L187.047 655.975L171.477 647.406L142.49 631.406C142.267 631.9 142.126 632.417 141.855 632.911C140.207 635.949 137.813 638.518 134.9 640.379C131.986 642.239 128.648 643.329 125.197 643.547C121.747 643.765 118.298 643.103 115.173 641.624C112.049 640.145 109.351 637.896 107.334 635.09C105.316 632.283 104.044 629.011 103.638 625.578C103.232 622.146 103.704 618.667 105.011 615.468C106.317 612.268 108.415 609.452 111.108 607.285C113.801 605.117 117 603.669 120.406 603.075C119.103 599.887 118.63 596.421 119.031 593C119.433 589.58 120.694 586.317 122.699 583.516C124.704 580.716 127.386 578.469 130.496 576.986C133.605 575.503 137.039 574.832 140.478 575.036C143.917 575.239 147.248 576.311 150.16 578.151C153.073 579.991 155.47 582.539 157.13 585.557C158.79 588.575 159.657 591.964 159.651 595.408C159.645 598.852 158.766 602.238 157.095 605.25C156.355 606.583 155.463 607.825 154.438 608.953L183.754 625.105L199.324 633.64L228.64 649.792C229.054 648.332 229.626 646.921 230.345 645.583Z" fill="white"/>
<path d="M560.961 625.479C559.773 623.196 559.185 620.65 559.25 618.078C559.316 615.506 560.033 612.993 561.336 610.774C562.638 608.554 564.482 606.702 566.696 605.39C568.91 604.078 571.421 603.349 573.993 603.272C576.566 603.195 579.116 603.771 581.404 604.948C583.693 606.125 585.646 607.863 587.079 610C588.512 612.137 589.38 614.602 589.6 617.166C589.82 619.729 589.385 622.306 588.337 624.656C590.849 625.179 593.187 626.33 595.134 628.001C597.08 629.673 598.571 631.81 599.467 634.214C600.363 636.617 600.635 639.209 600.258 641.746C599.88 644.283 598.866 646.683 597.309 648.722C595.752 650.761 593.703 652.372 591.354 653.405C589.006 654.438 586.433 654.859 583.878 654.629C581.322 654.398 578.867 653.524 576.741 652.088C574.615 650.652 572.888 648.7 571.721 646.416C571.55 646.032 571.401 645.64 571.274 645.24L549.343 656.514L537.583 662.556L515.64 673.818C515.884 674.145 516.107 674.487 516.31 674.841C517.499 677.123 518.088 679.669 518.024 682.241C517.959 684.813 517.243 687.326 515.941 689.546C514.64 691.765 512.796 693.619 510.583 694.932C508.37 696.244 505.86 696.974 503.287 697.053C500.715 697.131 498.164 696.556 495.875 695.38C493.586 694.204 491.633 692.467 490.199 690.331C488.764 688.194 487.896 685.729 487.675 683.166C487.454 680.603 487.887 678.025 488.934 675.675C486.421 675.155 484.081 674.007 482.132 672.338C480.183 670.668 478.689 668.532 477.79 666.129C476.891 663.726 476.617 661.135 476.991 658.597C477.366 656.058 478.379 653.657 479.934 651.616C481.489 649.575 483.537 647.962 485.885 646.927C488.233 645.892 490.806 645.469 493.362 645.697C495.918 645.926 498.375 646.799 500.502 648.234C502.63 649.669 504.358 651.62 505.527 653.904C506.039 654.918 506.433 655.987 506.703 657.09L528.881 645.699L540.64 639.656L562.831 628.265C562.107 627.408 561.48 626.473 560.961 625.479V625.479Z" fill="#CFD1D2"/>
<path d="M559.056 622.846C557.863 620.562 557.27 618.012 557.332 615.436C557.395 612.86 558.111 610.342 559.413 608.118C560.716 605.894 562.562 604.038 564.779 602.723C566.996 601.408 569.51 600.677 572.087 600.6C574.664 600.523 577.218 601.101 579.509 602.28C581.801 603.46 583.756 605.202 585.19 607.343C586.623 609.485 587.49 611.955 587.707 614.523C587.924 617.09 587.485 619.671 586.432 622.023C588.944 622.546 591.282 623.697 593.229 625.368C595.175 627.04 596.666 629.177 597.562 631.581C598.458 633.984 598.73 636.576 598.353 639.113C597.975 641.65 596.961 644.05 595.404 646.089C593.847 648.128 591.798 649.739 589.449 650.772C587.101 651.805 584.528 652.226 581.973 651.996C579.417 651.765 576.962 650.891 574.836 649.455C572.71 648.018 570.983 646.067 569.816 643.782C569.628 643.406 569.533 643.018 569.381 642.607L547.437 653.88L535.678 659.923L513.758 671.22C513.97 671.561 514.229 671.866 514.429 672.243C515.622 674.527 516.215 677.077 516.152 679.653C516.09 682.229 515.374 684.747 514.071 686.97C512.768 689.194 510.922 691.05 508.705 692.365C506.489 693.68 503.974 694.411 501.397 694.488C498.821 694.566 496.267 693.988 493.975 692.808C491.683 691.629 489.729 689.887 488.295 687.745C486.861 685.604 485.995 683.133 485.778 680.566C485.56 677.998 485.999 675.417 487.053 673.066C484.534 672.552 482.187 671.407 480.232 669.738C478.276 668.069 476.777 665.932 475.874 663.526C474.971 661.119 474.695 658.523 475.07 655.981C475.445 653.438 476.46 651.033 478.019 648.99C479.579 646.947 481.631 645.333 483.985 644.3C486.339 643.266 488.917 642.848 491.477 643.083C494.037 643.318 496.495 644.199 498.622 645.643C500.748 647.088 502.472 649.048 503.634 651.341C504.146 652.355 504.54 653.424 504.809 654.527L527 643.112L538.759 637.07L560.937 625.679C560.214 624.802 559.583 623.852 559.056 622.846V622.846Z" fill="white"/>
</svg>
