<svg width="266" height="75" viewBox="0 0 266 75" fill="none" xmlns="http://www.w3.org/2000/svg">
<path d="M0.234375 9.94531L14.9609 9.86719V54.3984H30.9375V66H3.71094C1.39323 65.4792 0.234375 64.4115 0.234375 62.7969V9.94531ZM34.2969 19.0859H53.1641C54.1536 19.0859 55.2474 19.5938 56.4453 20.6094C57.487 21.9375 58.1901 23.1354 58.5547 24.2031C58.7891 24.6979 58.9062 25.0365 58.9062 25.2188V58.7734C58.9062 60.388 58.4245 62.0547 57.4609 63.7734C56.9141 64.6849 55.8854 65.388 54.375 65.8828C54.0625 65.9609 53.8281 66 53.6719 66H40.2734C38.0339 65.5573 36.5365 64.8802 35.7812 63.9688C34.7396 62.7969 34.2188 61.3906 34.2188 59.75V19.1641C34.2188 19.112 34.2448 19.0859 34.2969 19.0859ZM40.625 26.625V41.7031C42.0052 40.6354 42.6953 39.0599 42.6953 36.9766C42.6693 36.8984 42.6302 36.0651 42.5781 34.4766C42.5781 34.3724 42.6823 34.2161 42.8906 34.0078C42.3177 33.3047 42.0312 32.7839 42.0312 32.4453V32.3281C42.0312 31.9375 42.2266 31.7422 42.6172 31.7422C43.3724 31.1693 43.9583 30.8438 44.375 30.7656L44.8828 30.9219L45.2734 30.8438L45.3125 30.9219C45.3125 31.4948 45.0911 31.8724 44.6484 32.0547C44.0234 32.1328 43.7109 32.237 43.7109 32.3672V32.6406C43.7109 32.9271 43.8021 33.0703 43.9844 33.0703C44.375 32.8359 44.6094 32.7188 44.6875 32.7188C44.7396 32.7188 44.9089 32.7708 45.1953 32.875C45.8984 32.3281 46.4974 31.9896 46.9922 31.8594C47.4609 32.224 47.9167 32.8359 48.3594 33.6953C48.4375 33.9036 48.4766 34.0729 48.4766 34.2031C48.3984 34.5677 48.2292 34.75 47.9688 34.75C47.474 34.75 47.0833 34.3203 46.7969 33.4609L46.5625 33.4219H46.2891V33.5391C46.2891 33.6693 46.4193 33.9427 46.6797 34.3594C46.6276 34.724 46.6016 35.0755 46.6016 35.4141V35.6484C46.6016 36.2214 46.8229 36.5599 47.2656 36.6641H47.3047C47.6953 36.638 48.0078 36.625 48.2422 36.625H48.3203C48.9974 36.625 49.3359 36.9375 49.3359 37.5625V37.7969C49.3359 39.4375 48.5156 40.4401 46.875 40.8047H46.8359C46.7057 40.8047 46.263 40.7786 45.5078 40.7266C45.3516 40.7266 45.2474 40.8958 45.1953 41.2344V42.0938C45.2214 42.3802 45.2734 42.5234 45.3516 42.5234H52.1094V26.625H40.625ZM62.5781 19.0078H83.75C83.8021 19.0078 83.8281 19.0339 83.8281 19.0859V30.375C83.8281 30.4531 83.8021 30.4922 83.75 30.4922H76.25V36.7422H83.75C83.8021 36.7422 83.8281 36.7682 83.8281 36.8203V61.6641C83.8281 63.513 83.0339 64.75 81.4453 65.375C80.5078 65.7917 79.8698 66 79.5312 66H62.5781C62.526 66 62.5 65.974 62.5 65.9219V53.5781C62.5 53.526 62.526 53.5 62.5781 53.5H70.4297V46.3516H66.3672C65.3255 46.3516 64.375 45.8568 63.5156 44.8672C62.9167 43.6693 62.5781 42.5885 62.5 41.625V19.0859C62.5 19.0339 62.526 19.0078 62.5781 19.0078ZM87.9688 0.179688H117.305C117.383 0.179688 117.422 0.205729 117.422 0.257812V14.0078C117.422 14.0859 117.383 14.125 117.305 14.125H111.523V65.9219C111.523 65.974 111.497 66 111.445 66H94.7266C94.6484 66 94.6094 65.974 94.6094 65.9219V14.125H87.9688C87.9167 14.125 87.8906 14.0859 87.8906 14.0078V0.257812C87.8906 0.205729 87.9167 0.179688 87.9688 0.179688ZM141.328 9.94531H168.945C173.997 9.94531 177.148 12.4714 178.398 17.5234V57.6797C178.398 62.3932 174.987 65.1667 168.164 66H141.25L141.328 9.94531ZM157.578 49.7109H161.836L161.797 24.7109H157.578V49.7109ZM182.422 19.0859H201.289C202.279 19.0859 203.372 19.5938 204.57 20.6094C205.612 21.9375 206.315 23.1354 206.68 24.2031C206.914 24.6979 207.031 25.0365 207.031 25.2188V58.7734C207.031 60.388 206.549 62.0547 205.586 63.7734C205.039 64.6849 204.01 65.388 202.5 65.8828C202.188 65.9609 201.953 66 201.797 66H188.398C186.159 65.5573 184.661 64.8802 183.906 63.9688C182.865 62.7969 182.344 61.3906 182.344 59.75V19.1641C182.344 19.112 182.37 19.0859 182.422 19.0859ZM188.75 26.625V41.7031C190.13 40.6354 190.82 39.0599 190.82 36.9766C190.794 36.8984 190.755 36.0651 190.703 34.4766C190.703 34.3724 190.807 34.2161 191.016 34.0078C190.443 33.3047 190.156 32.7839 190.156 32.4453V32.3281C190.156 31.9375 190.352 31.7422 190.742 31.7422C191.497 31.1693 192.083 30.8438 192.5 30.7656L193.008 30.9219L193.398 30.8438L193.438 30.9219C193.438 31.4948 193.216 31.8724 192.773 32.0547C192.148 32.1328 191.836 32.237 191.836 32.3672V32.6406C191.836 32.9271 191.927 33.0703 192.109 33.0703C192.5 32.8359 192.734 32.7188 192.812 32.7188C192.865 32.7188 193.034 32.7708 193.32 32.875C194.023 32.3281 194.622 31.9896 195.117 31.8594C195.586 32.224 196.042 32.8359 196.484 33.6953C196.562 33.9036 196.602 34.0729 196.602 34.2031C196.523 34.5677 196.354 34.75 196.094 34.75C195.599 34.75 195.208 34.3203 194.922 33.4609L194.688 33.4219H194.414V33.5391C194.414 33.6693 194.544 33.9427 194.805 34.3594C194.753 34.724 194.727 35.0755 194.727 35.4141V35.6484C194.727 36.2214 194.948 36.5599 195.391 36.6641H195.43C195.82 36.638 196.133 36.625 196.367 36.625H196.445C197.122 36.625 197.461 36.9375 197.461 37.5625V37.7969C197.461 39.4375 196.641 40.4401 195 40.8047H194.961C194.831 40.8047 194.388 40.7786 193.633 40.7266C193.477 40.7266 193.372 40.8958 193.32 41.2344V42.0938C193.346 42.3802 193.398 42.5234 193.477 42.5234H200.234V26.625H188.75ZM239.57 18.9297C239.648 18.9297 239.688 18.9688 239.688 19.0469V74.0859C239.688 74.1641 239.648 74.2031 239.57 74.2031H210.742C210.664 74.2031 210.625 74.1641 210.625 74.0859V66.3125C210.625 66.2344 210.664 66.1953 210.742 66.1953H225.078C225.13 66.1953 225.169 66.1562 225.195 66.0781V54.2812H218.594C216.771 54.2812 215.247 53.9167 214.023 53.1875C211.81 51.7031 210.703 49.724 210.703 47.25V19.0469C210.703 18.9688 210.742 18.9297 210.82 18.9297H239.57ZM225.781 29.0078V44.9844H231.289V29.0078H225.781ZM244.453 19.0078H265.625C265.677 19.0078 265.703 19.0339 265.703 19.0859V30.375C265.703 30.4531 265.677 30.4922 265.625 30.4922H258.125V36.7422H265.625C265.677 36.7422 265.703 36.7682 265.703 36.8203V61.6641C265.703 63.513 264.909 64.75 263.32 65.375C262.383 65.7917 261.745 66 261.406 66H244.453C244.401 66 244.375 65.974 244.375 65.9219V53.5781C244.375 53.526 244.401 53.5 244.453 53.5H252.305V46.3516H248.242C247.201 46.3516 246.25 45.8568 245.391 44.8672C244.792 43.6693 244.453 42.5885 244.375 41.625V19.0859C244.375 19.0339 244.401 19.0078 244.453 19.0078Z" fill="#3D3D3D"/>
</svg>
