<svg xmlns="http://www.w3.org/2000/svg" width="25" height="23" fill="none" xmlns:v="https://vecta.io/nano"><path d="M24.939 14.221v1.281c0 .08-.04.12-.12.16-.399.16-1.795.801-2.353 1.601-1.475 2.042-2.592 4.965-5.064 4.965H6.994c-3.669 0-6.66-3.003-6.66-6.726v-.12c0-.08.08-.16.16-.16h5.862c.12 0 .199.12.199.2-.04.36.04.761.199 1.121.359.721 1.077 1.121 1.834 1.121h2.871v-2.242H8.629c-.16 0-.239-.16-.16-.28.04-.04.08-.08.12-.16l1.037-1.642c.279-.44.518-.961.718-1.441a1.96 1.96 0 0 0 .12-.28c.04-.16.12-.32.159-.44l.12-.36a6.78 6.78 0 0 0 .12-1.321c0-.16 0-.36-.04-.561 0-.2-.04-.4-.04-.601a2.35 2.35 0 0 0-.08-.52 5.7 5.7 0 0 0-.159-.801l-.04-.08c-.04-.16-.08-.36-.159-.52-.159-.561-.359-1.121-.558-1.601l-.239-.601-.359-.801c-.04-.12-.12-.2-.16-.32s-.12-.24-.159-.36l-.12-.24-.359-.641c-.04-.08.04-.2.12-.16l2.193.601.279.08.319.08.12.04V1.169c0-.641.518-1.161 1.117-1.161a1.11 1.11 0 0 1 .797.32 1.12 1.12 0 0 1 .319.801v1.922l.239.08s.04 0 .04.04c.04.04.12.12.239.2.08.08.159.16.279.24l.758.641c.08.08.159.12.199.2.359.32.758.721 1.156 1.161.12.12.199.24.319.36s.199.28.319.4l.399.52c.04.08.12.16.16.28l.439.721c.04.12.12.24.16.36.159.32.279.641.319 1.001.04.08.04.16.04.2.04.08.04.2.04.32.04.36 0 .681-.04 1.041l-.12.44c-.04.12-.08.28-.16.44-.12.28-.279.561-.439.841a3.7 3.7 0 0 1-.199.32c-.08.12-.159.2-.199.32-.08.12-.199.24-.279.36s-.159.24-.279.36c-.12.16-.279.32-.399.481-.08.08-.16.2-.279.28-.08.08-.16.2-.279.28-.12.12-.239.24-.359.32l-.239.2c-.04.04-.08.04-.12.04h-1.755v2.242h2.193c.479 0 .957-.16 1.316-.48l1.356-1.321c.04-.04.04-.04.08-.04l6.061-1.762c.239-.12.319-.04.319.08z" fill="#fff"/></svg>