<svg width="218" height="96" viewBox="0 0 218 96" fill="none" xmlns="http://www.w3.org/2000/svg">
<path d="M209.276 56.815C208.714 56.2613 208.274 55.5959 207.987 54.8619C207.699 54.1279 207.569 53.3418 207.605 52.5547C207.641 51.7675 207.843 50.997 208.197 50.293C208.551 49.589 209.05 48.9674 209.66 48.4686C214.176 44.4452 216.929 38.8128 217.329 32.7813C217.633 26.6261 215.529 20.5921 211.46 15.9546C207.391 11.3172 201.677 8.43984 195.526 7.9308C189.596 7.52731 183.742 9.42741 179.185 13.234C164.522 25.3604 151.596 30.525 109.842 28.7506C68.0868 26.9762 55.6563 20.7407 42.0349 7.42071C37.8134 3.24359 32.1357 0.862048 26.1953 0.776657C20.0262 0.762954 14.0951 3.1439 9.6546 7.41665C5.21412 11.6894 2.61193 17.5194 2.39761 23.6755C2.30355 29.7188 4.58265 35.5606 8.74703 39.9503C9.29203 40.5131 9.71618 41.181 9.99336 41.9131C10.2705 42.6453 10.3949 43.4262 10.3589 44.2078C10.3229 44.9895 10.1271 45.7554 9.78375 46.4585C9.4404 47.1617 8.95665 47.7872 8.36222 48.2967C3.84698 52.32 1.09365 57.9525 0.69377 63.9839C0.389625 70.1366 2.49674 76.1676 6.56847 80.7989C10.6402 85.4303 16.3567 88.2981 22.5065 88.7946C28.4281 89.2109 34.2798 87.325 38.8375 83.5312C53.501 71.4049 76.7578 66.6894 108.191 67.9748C139.624 69.2602 162.376 75.9847 175.988 89.3445C180.219 93.5073 185.891 95.8863 191.827 95.9886C197.994 96.0022 203.923 93.6187 208.357 89.3428C212.791 85.0669 215.384 79.2344 215.585 73.0801C215.71 67.0417 213.442 61.1966 209.276 56.815Z" fill="#FFC536"/>
</svg>
