<svg xmlns="http://www.w3.org/2000/svg" width="26" height="22" fill="none" xmlns:v="https://vecta.io/nano"><path d="M26 2.604a10.34 10.34 0 0 1-3.064.875c1.101-.687 1.947-1.776 2.345-3.073a10.43 10.43 0 0 1-3.387 1.348C20.921.675 19.535 0 18.001 0c-2.946 0-5.334 2.487-5.334 5.554a5.79 5.79 0 0 0 .138 1.266C8.371 6.588 4.441 4.377 1.81 1.017c-.459.82-.722 1.774-.722 2.792 0 1.927.942 3.627 2.373 4.623-.874-.029-1.697-.279-2.416-.695v.07c0 2.691 1.839 4.936 4.279 5.446-.448.127-.919.195-1.405.195-.344 0-.678-.035-1.004-.1.679 2.207 2.649 3.812 4.983 3.857-1.826 1.49-4.126 2.377-6.625 2.377-.431 0-.855-.026-1.272-.078C2.361 21.081 5.165 22 8.177 22c9.812 0 15.177-8.463 15.177-15.802a16.79 16.79 0 0 0-.015-.718A11.1 11.1 0 0 0 26 2.604z" fill="#fff"/></svg>